<svg xmlns="http://www.w3.org/2000/svg" xmlns:xlink="http://www.w3.org/1999/xlink" viewBox="0 0 472.226 557.605"><defs><style>.a,.d{fill:#01acda;}.b{fill:#fff;}.c,.d{stroke:none;}.e{filter:url(#c);}.f{filter:url(#a);}</style><filter id="a" x="51" y="0" width="278.094" height="85.762" filterUnits="userSpaceOnUse"><feOffset dy="3" input="SourceAlpha"/><feGaussianBlur stdDeviation="3" result="b"/><feFlood flood-opacity="0.161"/><feComposite operator="in" in2="b"/><feComposite in="SourceGraphic"/></filter><filter id="c" x="0" y="16.762" width="472.226" height="540.843" filterUnits="userSpaceOnUse"><feOffset dy="3" input="SourceAlpha"/><feGaussianBlur stdDeviation="20" result="d"/><feFlood flood-opacity="0.161"/><feComposite operator="in" in2="d"/><feComposite in="SourceGraphic"/></filter></defs><g transform="translate(-644 -113.667)"><g class="f" transform="matrix(1, 0, 0, 1, 644, 113.67)"><path class="a" d="M704,276.429l260.094-67.762v67.762Z" transform="translate(-644 -202.67)"/></g><g transform="translate(0 -25)"><g class="e" transform="matrix(1, 0, 0, 1, 644, 138.67)"><g class="b" transform="translate(60 73.76)"><path class="c" d="M 347.2257690429688 415.8427734375 L 4.999980449676514 415.8427734375 L 4.999980449676514 4.999982357025146 L 347.2257690429688 4.999982357025146 L 347.2257690429688 415.8427734375 Z"/><path class="d" d="M 10 10 L 10 410.8427429199219 L 342.2257385253906 410.8427429199219 L 342.2257385253906 10 L 10 10 M 0 0 L 352.2257385253906 0 L 352.2257385253906 420.8427429199219 L 0 420.8427429199219 L 0 0 Z"/></g></g></g></g></svg>